<svg width="22" height="22" viewBox="0 0 22 22" fill="none" xmlns="http://www.w3.org/2000/svg">
<path d="M8.62712 1H21V3.73504M8.62712 1V3.73504M8.62712 1H1V5.95727M8.62712 3.73504H21M8.62712 3.73504V5.95727M21 3.73504V12.1111M18.9661 3.90598V8.69231M18.9661 8.69231H13.3729V3.90598V10.6581M18.9661 8.69231V12.1111M13.3729 16.2137V10.9145V10.6581M13.3729 16.2137H18.9661M13.3729 16.2137V18.265M18.9661 16.2137V12.1111M18.9661 16.2137H21M18.9661 12.1111H21M21 12.1111V16.2137M21 16.2137V21H13.3729M13.3729 21H1V18.265M13.3729 21V18.265M13.3729 18.265H8.62712M1 18.265V15.5299M1 18.265H8.62712M1 15.5299H8.62712M1 15.5299V10.6581M8.62712 15.5299V18.265M8.62712 15.5299V12.7949M1 5.95727H4.38983M1 5.95727V10.6581M4.38983 5.95727V10.6581M4.38983 5.95727H8.62712M4.38983 15.359V12.7949M4.38983 10.6581H1M4.38983 10.6581V12.7949M4.38983 12.7949H8.62712M8.62712 12.7949V10.6581M8.62712 10.6581H13.3729M8.62712 10.6581V5.95727" stroke="black"/>
</svg>
