<svg width="244" height="64" viewBox="0 0 244 64" fill="none" xmlns="http://www.w3.org/2000/svg">
<path d="M61.5857 36V35.3135L64.2975 34.2837V15.061L61.5857 14.0312V13.3447H69.2748C70.7622 13.3447 72.1124 13.5392 73.3253 13.9282C74.5381 14.2944 75.4993 14.855 76.2087 15.6102C76.9181 16.3425 77.2728 17.2808 77.2728 18.425C77.2728 19.6149 76.8723 20.7134 76.0714 21.7203C75.2933 22.7043 74.172 23.4137 72.7074 23.8485C74.767 24.1231 76.3689 24.741 77.5131 25.7021C78.6573 26.6633 79.2294 27.899 79.2294 29.4094C79.2294 30.668 78.8289 31.8008 78.028 32.8077C77.2499 33.7917 76.1858 34.5697 74.8356 35.1418C73.4855 35.7139 71.9408 36 70.2016 36H61.5857ZM68.8972 14.958H66.9749V23.5052H69.1031C70.7279 23.5052 72.0209 23.1391 72.982 22.4068C73.9431 21.6745 74.4237 20.6447 74.4237 19.3174C74.4237 17.8757 73.9546 16.7887 73.0163 16.0565C72.0781 15.3242 70.705 14.958 68.8972 14.958ZM70.2016 25.1186H66.9749V34.421H70.4419C72.2497 34.421 73.6914 33.9862 74.767 33.1166C75.8425 32.2241 76.3803 31.1028 76.3803 29.7526C76.3803 28.1507 75.8311 26.9836 74.7326 26.2513C73.6571 25.4962 72.1467 25.1186 70.2016 25.1186ZM99.3741 36V35.3135L102.12 34.2837V15.061L99.3741 14.0312V13.3447H107.544V14.0312L104.798 15.061V24.3291L114.512 14.958L111.972 14.0312V13.3447H119.009V14.0312L116.915 14.6834L107.475 23.6426L118.597 34.627L120.794 35.3135V36H116.297L104.798 24.4664V34.2837L107.544 35.3135V36H99.3741ZM125.316 36V35.3135L127.375 34.4553L136.128 13.173H137.33L146.049 34.421L148.211 35.3135V36H140.213V35.3135L143.165 34.421L140.488 27.7274H132.009L129.366 34.4553L132.318 35.3135V36H125.316ZM132.661 26.114H139.836L136.231 17.1206L132.661 26.114ZM155.193 36V35.3135L157.905 34.2837L158.626 15.1296L155.674 14.0312V13.3447H161.612L169.679 32.1555L177.848 13.3447H183.547V14.0312L180.663 15.0953L181.247 34.2837L183.65 35.3135V36H176.098V35.3135L178.638 34.318L178.26 16.537L169.747 36.1716H168.546L160.205 16.6057L159.793 34.318L162.573 35.3135V36H155.193ZM191.724 36V35.3135L194.435 34.2837V15.061L191.724 14.0312V13.3447H199.928V14.0312L197.113 15.061V23.5052H209.299V15.061L206.484 14.0312V13.3447H214.688V14.0312L211.976 15.061V34.2837L214.688 35.3135V36H206.484V35.3135L209.299 34.2837V25.1186H197.113V34.2837L199.928 35.3135V36H191.724ZM222.92 36V35.3135L225.632 34.2837V15.061L222.92 14.0312V13.3447H239.122V19.1115H238.539L236.685 14.958H228.31V23.5052H234.317L235.69 20.6562H236.273V27.899H235.69L234.317 25.1186H228.31V34.3867H237.646L239.5 29.8899H240.083V36H222.92Z" fill="black" fill-opacity="0.73"/>
<path d="M20.3085 10.2979H51.6312V17.1631V38.1879V48.4858V60.5H32.3227H1V53.6348V46.7695V34.5408V22.7411V10.2979H20.3085Z" fill="black" fill-opacity="0.73"/>
<path d="M20.3085 10.2979H51.6312V17.1631M20.3085 10.2979V17.1631M20.3085 10.2979H1V22.7411M20.3085 17.1631H51.6312M20.3085 17.1631V22.7411M51.6312 17.1631V38.1879M46.4823 17.5922V29.6064M46.4823 29.6064H32.3227V17.5922V34.5408M46.4823 29.6064V38.1879M32.3227 48.4858V35.1844V34.5408M32.3227 48.4858H46.4823M32.3227 48.4858V53.6348M46.4823 48.4858V38.1879M46.4823 48.4858H51.6312M46.4823 38.1879H51.6312M51.6312 38.1879V48.4858M51.6312 48.4858V60.5H32.3227M32.3227 60.5H1V53.6348M32.3227 60.5V53.6348M32.3227 53.6348H20.3085M1 53.6348V46.7695M1 53.6348H20.3085M1 46.7695H20.3085M1 46.7695V34.5408M20.3085 46.7695V53.6348M20.3085 46.7695V39.9043M1 22.7411H9.58156M1 22.7411V34.5408M9.58156 22.7411V34.5408M9.58156 22.7411H20.3085M9.58156 46.3404V39.9043M9.58156 34.5408H1M9.58156 34.5408V39.9043M9.58156 39.9043H20.3085M20.3085 39.9043V34.5408M20.3085 34.5408H32.3227M20.3085 34.5408V22.7411" stroke="white" stroke-width="1.71631"/>
<path d="M62.8775 56.1915V55.8997L64.0446 55.4621V47.2924L62.8775 46.8548V46.563H66.3496V46.8548L65.1825 47.2924V51.2313L69.3111 47.2486L68.2315 46.8548V46.563H71.2222V46.8548L70.3323 47.1319L66.3204 50.9396L71.0471 55.6079L71.9808 55.8997V56.1915H70.0697L65.1825 51.2897V55.4621L66.3496 55.8997V56.1915H62.8775ZM76.8203 56.1915V55.8997L77.6957 55.535L81.4158 46.49H81.9264L85.6319 55.5204L86.551 55.8997V56.1915H83.1518V55.8997L84.4064 55.5204L83.2685 52.6756H79.6651L78.5418 55.535L79.7964 55.8997V56.1915H76.8203ZM79.9423 51.99H82.9913L81.4595 48.1677L79.9423 51.99ZM92.436 56.1915V55.8997L93.5885 55.4621L93.8949 47.3216L92.6403 46.8548V46.563H95.1641L98.5924 54.5576L102.065 46.563H104.486V46.8548L103.261 47.307L103.509 55.4621L104.53 55.8997V56.1915H101.321V55.8997L102.4 55.4766L102.24 47.9197L98.6216 56.2644H98.111L94.566 47.9489L94.3909 55.4766L95.5726 55.8997V56.1915H92.436ZM110.879 56.1915V55.8997L112.032 55.4621V47.2924L110.879 46.8548V46.563H117.765V49.0139H117.517L116.729 47.2486H113.17V50.8812H115.723L116.306 49.6704H116.554V52.7486H116.306L115.723 51.5669H113.17V55.5058H117.138L117.926 53.5947H118.174V56.1915H110.879ZM124.662 56.1915V55.8997L125.815 55.4621V47.2924L124.662 46.8548V46.563H128.149V46.8548L126.953 47.2924V50.8812H132.132V47.2924L130.935 46.8548V46.563H134.422V46.8548L133.269 47.2924V55.4621L134.422 55.8997V56.1915H130.935V55.8997L132.132 55.4621V51.5669H126.953V55.4621L128.149 55.8997V56.1915H124.662ZM140.838 56.1915V55.8997L141.991 55.4621V47.2924L140.838 46.8548V46.563H144.325V46.8548L143.129 47.2924V50.8812H148.308V47.2924L147.112 46.8548V46.563H150.598V46.8548L149.446 47.2924V55.4621L150.598 55.8997V56.1915H147.112V55.8997L148.308 55.4621V51.5669H143.129V55.4621L144.325 55.8997V56.1915H140.838ZM160.749 56.1915H157.015V55.8997L158.167 55.4621V47.2924L157.015 46.8548V46.563H160.749V46.8548L159.305 47.2924V50.5894H160.749C161.975 50.5894 162.933 50.8326 163.623 51.3189C164.314 51.8052 164.659 52.4471 164.659 53.2446C164.659 53.8087 164.504 54.3144 164.192 54.7618C163.881 55.1995 163.434 55.5496 162.85 55.8122C162.267 56.0651 161.566 56.1915 160.749 56.1915ZM160.662 51.2751H159.305V55.5058H160.749C161.664 55.5058 162.34 55.3113 162.777 54.9223C163.225 54.5235 163.448 54.0129 163.448 53.3905C163.448 52.6513 163.225 52.1164 162.777 51.7857C162.33 51.4453 161.625 51.2751 160.662 51.2751ZM166.176 56.1915V55.8997L167.329 55.4621V47.2924L166.176 46.8548V46.563H169.619V46.8548L168.467 47.2924V55.4621L169.619 55.8997V56.1915H166.176ZM176.112 56.1915V55.8997L177.264 55.4621V47.2924L176.112 46.8548V46.563H179.598V46.8548L178.402 47.2924V53.974L183.727 47.9197V47.2924L182.531 46.8548V46.563H186.017V46.8548L184.865 47.2924V55.4621L186.017 55.8997V56.1915H182.531V55.8997L183.727 55.4621V48.8534L178.402 54.9077V55.4621L179.598 55.8997V56.1915H176.112ZM181.086 45.8335C180.299 45.8335 179.705 45.6244 179.307 45.2062C178.918 44.7783 178.723 44.2482 178.723 43.6161H179.832C179.832 44.1218 179.924 44.54 180.109 44.8707C180.303 45.1916 180.629 45.3521 181.086 45.3521C181.543 45.3521 181.864 45.1916 182.049 44.8707C182.244 44.54 182.341 44.1218 182.341 43.6161H183.45C183.45 44.2482 183.25 44.7783 182.852 45.2062C182.463 45.6244 181.874 45.8335 181.086 45.8335ZM200.527 56.1915V55.8997L201.68 55.4621L201.986 47.3216L200.731 46.8548V46.563H203.255L206.684 54.5576L210.156 46.563H212.577V46.8548L211.352 47.307L211.6 55.4621L212.621 55.8997V56.1915H209.412V55.8997L210.491 55.4766L210.331 47.9197L206.713 56.2644H206.202L202.657 47.9489L202.482 55.4766L203.664 55.8997V56.1915H200.527ZM218.97 56.1915V55.8997L220.123 55.4621V47.2924L218.97 46.8548V46.563H222.457V46.8548L221.261 47.2924V53.974L226.586 47.9197V47.2924L225.389 46.8548V46.563H228.876V46.8548L227.724 47.2924V55.4621L228.876 55.8997V56.1915H225.389V55.8997L226.586 55.4621V48.8534L221.261 54.9077V55.4621L222.457 55.8997V56.1915H218.97ZM235.289 56.1915V55.8997L236.456 55.4621V47.2924L235.289 46.8548V46.563H238.717C239.865 46.563 240.784 46.7721 241.475 47.1903C242.175 47.6085 242.525 48.2699 242.525 49.1743C242.525 49.7093 242.35 50.1858 242 50.604C241.65 51.0125 241.163 51.3383 240.541 51.5815C239.928 51.8246 239.228 51.9462 238.44 51.9462H237.594V55.4621L238.907 55.8997V56.1915H235.289ZM237.594 47.2486V51.2605H238.776C239.544 51.2605 240.157 51.0806 240.614 50.7207C241.071 50.3512 241.3 49.8746 241.3 49.2911C241.3 48.5714 241.066 48.051 240.599 47.7301C240.142 47.4091 239.5 47.2486 238.674 47.2486H237.594Z" fill="black" fill-opacity="0.73"/>
</svg>
